
<svg version="1.1" id="Layer_1" xmlns="http://www.w3.org/2000/svg" xmlns:xlink="http://www.w3.org/1999/xlink" x="0px" y="0px" viewBox="0 0 74 74" enable-background="new 0 0 74 74" xml:space="preserve">
<g><ellipse cx="37.3" cy="37.1" rx="6.5" ry="6.3"/><path d="M50,26.4c0-0.8-0.6-1.4-1.4-1.4h-4.1c-0.8,0-1.4,0.6-1.4,1.4v3.1c0,0.8,0.6,1.4,1.4,1.4h4.1c0.8,0,1.4-0.6,1.4-1.4V26.4z"/><path d="M37.1,0.1C16.7,0.1,0.2,16.6,0.2,37c0,20.4,16.5,36.9,36.9,36.9C57.5,73.9,74,57.4,74,37C74,16.6,57.5,0.1,37.1,0.1z
M53,48.9c0,2.3-1.8,4.1-4.1,4.1H25.1c-2.3,0-4.1-1.8-4.1-4.1V25.1c0-2.3,1.8-4.1,4.1-4.1h23.8c2.3,0,4.1,1.8,4.1,4.1V48.9z"/><path d="M47.3,37.6c0,5.3-4.5,9.6-10,9.6c-5.5,0-10-4.2-10-9.6c0-1,0.1-1.7,0.4-2.7H25v13.3c0,0.7,0.4,1.7,1.1,1.7h22.4c0.7,0,1.5-1,1.5-1.7V35h-3.1C47.2,36,47.3,36.7,47.3,37.6z"/></g></svg>
