<!DOCTYPE svg PUBLIC "-//W3C//DTD SVG 1.1//EN" "http://www.w3.org/Graphics/SVG/1.1/DTD/svg11.dtd">
<svg version="1.1" id="Layer_1" xmlns="http://www.w3.org/2000/svg" xmlns:xlink="http://www.w3.org/1999/xlink" x="0px" y="0px"
	 viewBox="0 0 74 74" enable-background="new 0 0 74 74" xml:space="preserve">
<path d="M37.1,0.1C16.7,0.1,0.2,16.6,0.2,37c0,20.4,16.5,36.9,36.9,36.9C57.5,73.9,74,57.4,74,37C74,16.6,57.5,0.1,37.1,0.1z
	 M52.1,30.3c0,0.3,0,0.6,0,0.9c0,9.6-7.3,20.7-20.7,20.7c-4.1,0-7.9-1.2-11.1-3.3c0.6,0.1,1.1,0.1,1.7,0.1c3.4,0,6.5-1.2,9-3.1
	c-3.2-0.1-5.9-2.2-6.8-5c0.4,0.1,0.9,0.1,1.4,0.1c0.7,0,1.3-0.1,1.9-0.3c-3.3-0.7-5.8-3.6-5.8-7.1c0,0,0-0.1,0-0.1
	c1,0.5,2.1,0.9,3.3,0.9c-1.9-1.3-3.2-3.5-3.2-6c0-1.3,0.4-2.6,1-3.7c3.6,4.4,8.9,7.3,15,7.6c-0.1-0.5-0.2-1.1-0.2-1.7
	c0-4,3.3-7.3,7.3-7.3c2.1,0,4,0.9,5.3,2.3c1.7-0.3,3.2-0.9,4.6-1.8c-0.5,1.7-1.7,3.1-3.2,4c1.5-0.2,2.9-0.6,4.2-1.1
	C54.8,28,53.5,29.3,52.1,30.3z"/>
</svg>
